<svg width="1997" height="1208" viewBox="0 0 1997 1208" fill="none" xmlns="http://www.w3.org/2000/svg">
<g clip-path="url(#clip0_3001_5346)">
<path d="M1505.04 1118.38V804.914C1300.32 791.51 1095.09 785.477 889.911 786.815L1126.92 1118.38H1505.02H1505.04Z" fill="#0A1420"/>
<path d="M1505.04 329.135V0H1071.62V312.972C1216.2 314.948 1360.73 320.343 1505.04 329.135Z" fill="#0A1420"/>
<path d="M544.715 280.604C524.681 280.604 505.861 284.413 488.257 291.99C470.652 299.608 455.271 309.965 442.155 323.061C441.167 324.049 440.22 325.037 439.272 326.046C506.458 322.34 573.686 319.354 640.933 317.131C629.279 306.794 616.04 298.393 601.174 291.99C583.569 284.392 564.729 280.604 544.715 280.604Z" fill="#0A1420"/>
<path d="M820.089 821.489C805.223 846.754 790.089 870.577 774.667 892.958C726.218 963.027 671.633 1027.95 610.851 1087.68H417.714V881.18C433.692 854.99 449.526 827.975 465.154 800.117C438.984 801.579 412.814 803.185 386.644 804.894V1118.38H820.089V821.489Z" fill="#0A1420"/>
<path d="M417.714 327.261V46.8634C454.118 36.0329 492.725 30.5971 533.576 30.5971C591.27 30.5971 644.845 40.6451 694.303 60.7412C743.761 80.8373 786.774 109.19 823.342 145.738C859.89 182.327 888.49 225.34 909.121 274.777C914.186 286.966 918.634 299.423 922.464 312.169C943.836 312.107 965.23 312.107 986.602 312.21L763.075 0H386.664V329.115C397.021 328.476 407.378 327.859 417.735 327.261H417.714Z" fill="#0A1420"/>
<path d="M70.9538 538.991C70.9538 615.937 70.9538 692.862 70.9538 769.808C47.2956 772.258 23.6374 774.77 -0.000183105 777.344V419.053C32.7795 415.429 65.6003 412.011 98.4212 408.758C117.797 484.201 137.172 559.643 156.547 635.086C156.547 557.79 156.547 480.515 156.547 403.219C180.226 401.078 203.905 398.998 227.604 396.98V755.251C194.825 758.01 162.045 760.934 129.286 764.043C109.849 689.012 90.4116 614.002 70.9744 538.991H70.9538Z" fill="#0A1420"/>
<path d="M284.29 750.7V392.43C307.989 390.639 331.688 388.909 355.408 387.262V745.553C331.709 747.22 307.989 748.929 284.29 750.721V750.7Z" fill="#0A1420"/>
<path d="M483.315 506.891C483.315 583.837 483.315 660.762 483.315 737.708C459.595 739.025 435.875 740.384 412.155 741.826V383.535C445.038 381.496 477.941 379.643 510.865 377.975C530.302 454.345 549.718 530.714 569.135 607.104C569.135 529.808 569.135 452.533 569.135 375.237C592.876 374.228 616.595 373.281 640.336 372.416V730.686C607.474 731.86 574.633 733.219 541.791 734.743C522.313 658.785 502.814 582.828 483.315 506.891Z" fill="#0A1420"/>
<path d="M768.387 660.824C807.961 660.062 847.556 659.526 887.131 659.197V725.477C823.795 726.012 760.459 727.145 697.144 728.874V370.583C760.459 368.854 823.795 367.721 887.131 367.186V433.466C847.536 433.795 807.961 434.331 768.387 435.093C768.387 461.633 768.387 488.174 768.387 514.715C801.331 514.036 834.255 513.542 867.199 513.253C867.199 535.408 867.199 557.584 867.199 579.739C834.255 580.048 801.31 580.542 768.387 581.201C768.387 607.742 768.387 634.283 768.387 660.824Z" fill="#0A1420"/>
<path d="M986.87 433.384C963.685 433.302 940.501 433.281 917.316 433.343C917.316 411.249 917.316 389.156 917.316 367.063C987.302 366.939 1057.29 367.557 1127.25 368.916V435.196C1104.13 434.743 1081.03 434.352 1057.91 434.022C1057.91 531.352 1057.91 628.682 1057.91 726.033C1034.23 725.765 1010.55 725.539 986.87 725.395C986.87 628.065 986.87 530.735 986.87 433.384Z" fill="#0A1420"/>
<path d="M1309.85 374.701C1324.12 375.298 1336.41 380.59 1346.73 390.535C1357.19 400.625 1362.42 412.464 1362.42 426.012C1362.42 512.821 1362.42 599.65 1362.42 686.458C1362.42 700.007 1357.19 711.331 1346.73 720.432C1336.41 729.41 1324.12 733.589 1309.85 732.992C1274.95 731.51 1240.05 730.254 1205.15 729.204C1190.88 728.771 1178.57 723.706 1168.25 713.988C1157.79 704.125 1152.56 692.429 1152.56 678.881C1152.56 592.052 1152.56 505.244 1152.56 418.414C1152.56 404.866 1157.79 393.397 1168.25 384.07C1178.57 374.887 1190.86 370.48 1205.15 370.913C1240.05 371.963 1274.97 373.219 1309.85 374.701ZM1223.8 437.769C1223.8 513.006 1223.8 588.263 1223.8 663.5C1246.27 664.262 1268.73 665.065 1291.21 665.93C1291.21 590.693 1291.21 515.456 1291.21 440.199C1268.75 439.334 1246.29 438.511 1223.8 437.749V437.769Z" fill="#0A1420"/>
<path d="M1488.86 511.606C1488.86 588.531 1488.86 665.477 1488.86 742.402C1465.14 740.94 1441.42 739.54 1417.7 738.201V379.931C1450.6 381.743 1483.51 383.74 1516.39 385.902C1535.81 464.536 1555.2 543.191 1574.6 621.825C1574.6 544.53 1574.6 467.254 1574.6 389.959C1598.3 391.729 1622 393.562 1645.7 395.456V753.727C1612.92 751.05 1580.12 748.579 1547.3 746.273C1527.84 668.03 1508.36 589.808 1488.86 511.585V511.606Z" fill="#0A1420"/>
<path d="M1773.4 698.834C1812.85 702.705 1852.28 706.782 1891.69 711.065C1891.69 733.158 1891.69 755.251 1891.69 777.345C1828.64 770.488 1765.53 764.229 1702.38 758.566V400.275C1765.55 405.938 1828.64 412.197 1891.69 419.054V485.334C1852.28 481.051 1812.85 476.974 1773.4 473.103C1773.4 499.644 1773.4 526.185 1773.4 552.726C1806.24 555.897 1839.04 559.253 1871.84 562.794C1871.84 584.949 1871.84 607.125 1871.84 629.28C1839.04 625.718 1806.24 622.362 1773.4 619.212C1773.4 645.752 1773.4 672.293 1773.4 698.834Z" fill="#0A1420"/>
<path d="M398.112 1170.04V1207.19H386.664V1149.53H402.539L411.908 1186.84V1149.53H423.356V1207.19H407.502L398.092 1170.04H398.112Z" fill="#0A1420"/>
<path d="M478.27 1207.19V1149.53H489.718V1207.19H478.27Z" fill="#0A1420"/>
<path d="M556.101 1170.04V1207.19H544.653V1149.53H560.528L569.897 1186.84V1149.53H581.345V1207.19H565.491L556.081 1170.04H556.101Z" fill="#0A1420"/>
<path d="M647.707 1196.52H666.794V1207.19H636.259V1149.53H666.794V1160.2H647.707V1173.01H663.582V1183.71H647.707V1196.52Z" fill="#0A1420"/>
<path d="M726.012 1160.2H714.832V1149.53H748.579V1160.2H737.44V1207.19H726.033V1160.2H726.012Z" fill="#0A1420"/>
<path d="M822.848 1149.53C825.154 1149.53 827.11 1150.3 828.778 1151.82C830.466 1153.36 831.311 1155.22 831.311 1157.4V1199.32C831.311 1201.5 830.466 1203.36 828.778 1204.9C827.11 1206.42 825.154 1207.19 822.848 1207.19H806.005C803.699 1207.19 801.722 1206.42 800.075 1204.9C798.387 1203.36 797.563 1201.5 797.563 1199.32V1157.4C797.563 1155.22 798.407 1153.36 800.075 1151.82C801.722 1150.3 803.699 1149.53 806.005 1149.53H822.848ZM809.011 1160.2V1196.52H819.842V1160.2H809.011Z" fill="#0A1420"/>
<path d="M897.426 1170.04V1207.19H885.978V1149.53H901.853L911.221 1186.84V1149.53H922.67V1207.19H906.815L897.405 1170.04H897.426Z" fill="#0A1420"/>
<path d="M989.053 1196.52H1008.14V1207.19H977.604V1149.53H1008.14V1160.2H989.053V1173.01H1004.93V1183.71H989.053V1196.52Z" fill="#0A1420"/>
<path d="M1144.61 1186.64H1139.2V1175.97H1156.06V1199.32C1156.06 1201.5 1155.22 1203.36 1153.53 1204.9C1151.88 1206.42 1149.9 1207.19 1147.6 1207.19H1130.78C1128.47 1207.19 1126.49 1206.42 1124.85 1204.9C1123.16 1203.36 1122.33 1201.5 1122.33 1199.32V1157.4C1122.33 1155.22 1123.18 1153.36 1124.85 1151.82C1126.49 1150.3 1128.49 1149.53 1130.78 1149.53H1147.6C1149.9 1149.53 1151.88 1150.3 1153.53 1151.82C1155.22 1153.36 1156.06 1155.22 1156.06 1157.4V1168.99H1144.61V1160.2H1133.78V1196.52H1144.61V1186.64Z" fill="#0A1420"/>
<path d="M1221 1186.64V1207.19H1209.55V1149.53H1234.84C1237.14 1149.53 1239.12 1150.3 1240.77 1151.82C1242.46 1153.36 1243.3 1155.22 1243.3 1157.4V1172.26C1243.3 1176.03 1241.84 1179.04 1238.89 1181.3C1241.82 1183.55 1243.3 1186.58 1243.3 1190.4V1207.21H1231.85V1190.4C1231.85 1189.38 1231.44 1188.47 1230.62 1187.71C1229.79 1187.01 1228.85 1186.66 1227.76 1186.66H1221V1186.64ZM1227.76 1175.97C1228.85 1175.97 1229.79 1175.6 1230.62 1174.88C1231.44 1174.18 1231.85 1173.29 1231.85 1172.26V1160.2H1221.02V1175.97H1227.78H1227.76Z" fill="#0A1420"/>
<path d="M1322.04 1149.53C1324.34 1149.53 1326.3 1150.3 1327.97 1151.82C1329.66 1153.36 1330.5 1155.22 1330.5 1157.4V1199.32C1330.5 1201.5 1329.66 1203.36 1327.97 1204.9C1326.3 1206.42 1324.34 1207.19 1322.04 1207.19H1305.2C1302.89 1207.19 1300.91 1206.42 1299.27 1204.9C1297.58 1203.36 1296.75 1201.5 1296.75 1199.32V1157.4C1296.75 1155.22 1297.6 1153.36 1299.27 1151.82C1300.93 1150.3 1302.91 1149.53 1305.2 1149.53H1322.04ZM1308.2 1160.2V1196.52H1319.03V1160.2H1308.2Z" fill="#0A1420"/>
<path d="M1396.2 1196.52H1407.03V1149.53H1418.48V1199.32C1418.48 1201.5 1417.64 1203.36 1415.97 1204.9C1414.3 1206.42 1412.33 1207.19 1410.04 1207.19H1393.2C1390.89 1207.19 1388.92 1206.42 1387.27 1204.9C1385.58 1203.36 1384.74 1201.5 1384.74 1199.32V1149.53H1396.18V1196.52H1396.2Z" fill="#0A1420"/>
<path d="M1473.27 1149.53H1498.56C1500.84 1149.53 1502.82 1150.3 1504.49 1151.82C1506.18 1153.36 1507.02 1155.22 1507.02 1157.4V1172.26C1507.02 1176.65 1505.33 1180.19 1501.98 1182.87C1498.81 1185.38 1494.87 1186.64 1490.16 1186.64H1484.74V1207.19H1473.29V1149.53H1473.27ZM1484.72 1160.2V1175.97H1490.14C1493.74 1175.97 1495.55 1174.74 1495.55 1172.26V1160.2H1484.72Z" fill="#0A1420"/>
<path d="M1965.24 428.75C1970.47 428.75 1975.59 430.089 1980.58 432.786C1985.56 435.463 1989.45 439.313 1992.23 444.317C1995.01 449.32 1996.41 454.529 1996.41 459.965C1996.41 465.401 1995.03 470.508 1992.29 475.47C1989.55 480.432 1985.7 484.282 1980.76 487.021C1975.82 489.759 1970.63 491.139 1965.24 491.139C1959.84 491.139 1954.67 489.759 1949.71 487.021C1944.77 484.282 1940.92 480.432 1938.16 475.47C1935.4 470.508 1934.02 465.339 1934.02 459.965C1934.02 454.591 1935.42 449.32 1938.22 444.317C1941.02 439.313 1944.91 435.463 1949.9 432.786C1954.88 430.109 1959.99 428.75 1965.24 428.75ZM1965.24 433.919C1960.85 433.919 1956.59 435.051 1952.45 437.295C1948.31 439.54 1945.06 442.752 1942.71 446.932C1940.36 451.112 1939.19 455.456 1939.19 459.965C1939.19 464.475 1940.34 468.757 1942.65 472.875C1944.95 476.993 1948.17 480.206 1952.31 482.512C1956.42 484.818 1960.75 485.971 1965.24 485.971C1969.73 485.971 1974.05 484.818 1978.17 482.512C1982.31 480.206 1985.52 476.993 1987.8 472.875C1990.09 468.757 1991.24 464.454 1991.24 459.965C1991.24 455.477 1990.07 451.091 1987.74 446.932C1985.41 442.752 1982.16 439.54 1978 437.295C1973.84 435.051 1969.58 433.919 1965.24 433.919ZM1975.24 464.989L1980.33 466.472C1979.51 469.91 1977.76 472.67 1975.06 474.708C1972.36 476.746 1969.11 477.796 1965.28 477.796C1960.42 477.796 1956.49 476.232 1953.46 473.081C1950.43 469.952 1948.91 465.586 1948.91 460.027C1948.91 456.383 1949.59 453.232 1950.97 450.535C1952.35 447.858 1954.3 445.82 1956.86 444.461C1959.41 443.102 1962.31 442.422 1965.61 442.422C1969.27 442.422 1972.32 443.308 1974.75 445.037C1977.18 446.788 1978.83 449.155 1979.71 452.162L1974.79 453.356C1973.97 451.317 1972.75 449.753 1971.13 448.661C1969.52 447.57 1967.62 447.035 1965.44 447.035C1962.27 447.035 1959.66 448.167 1957.62 450.432C1955.56 452.697 1954.53 455.93 1954.53 460.151C1954.53 464.372 1955.5 467.563 1957.45 469.725C1959.39 471.887 1961.92 472.978 1964.99 472.978C1967.46 472.978 1969.64 472.258 1971.52 470.837C1973.39 469.396 1974.63 467.46 1975.24 465.01V464.989Z" fill="black"/>
</g>
<defs>
<clipPath id="clip0_3001_5346">
<rect width="1996.41" height="1207.19" fill="white"/>
</clipPath>
</defs>
</svg>
